<?xml version="1.0" encoding="UTF-8" standalone="no"?>
<!-- Created with Inkscape (http://www.inkscape.org/) -->

<svg
   xmlns:dc="http://purl.org/dc/elements/1.1/"
   xmlns:cc="http://creativecommons.org/ns#"
   xmlns:rdf="http://www.w3.org/1999/02/22-rdf-syntax-ns#"
   xmlns:svg="http://www.w3.org/2000/svg"
   xmlns="http://www.w3.org/2000/svg"
   xmlns:sodipodi="http://sodipodi.sourceforge.net/DTD/sodipodi-0.dtd"
   xmlns:inkscape="http://www.inkscape.org/namespaces/inkscape"
   width="210mm"
   height="297mm"
   viewBox="0 0 744.09448819 1052.3622047"
   id="svg2"
   version="1.1"
   inkscape:version="0.91 r13725"
   sodipodi:docname="drawing.svg">
  <defs
     id="defs4">
    <inkscape:perspective
       sodipodi:type="inkscape:persp3d"
       inkscape:vp_x="0 : 526.1811 : 1"
       inkscape:vp_y="0 : 1000 : 0"
       inkscape:vp_z="744.09449 : 526.1811 : 1"
       inkscape:persp3d-origin="372.04724 : 350.7874 : 1"
       id="perspective3338" />
  </defs>
  <sodipodi:namedview
     id="base"
     pagecolor="#ffffff"
     bordercolor="#666666"
     borderopacity="1.0"
     inkscape:pageopacity="0.0"
     inkscape:pageshadow="2"
     inkscape:zoom="0.35"
     inkscape:cx="-479.28571"
     inkscape:cy="520"
     inkscape:document-units="px"
     inkscape:current-layer="layer1"
     showgrid="false"
     inkscape:window-width="1366"
     inkscape:window-height="715"
     inkscape:window-x="-8"
     inkscape:window-y="-8"
     inkscape:window-maximized="1" />
  <metadata
     id="metadata7">
    <rdf:RDF>
      <cc:Work
         rdf:about="">
        <dc:format>image/svg+xml</dc:format>
        <dc:type
           rdf:resource="http://purl.org/dc/dcmitype/StillImage" />
        <dc:title />
      </cc:Work>
    </rdf:RDF>
  </metadata>
  <g
     inkscape:label="Layer 1"
     inkscape:groupmode="layer"
     id="layer1">
    <g
       id="g3356">
      <path
         style="fill:#0000ff;fill-rule:evenodd;stroke:#000000;stroke-width:1px;stroke-linecap:butt;stroke-linejoin:miter;stroke-opacity:1"
         d="m 151.42857,186.64792 251.42858,0 0,308.57144 -251.42858,0 z"
         id="rect3336" />
      <g
         id="g3340"
         style="fill:none;fill-rule:evenodd;stroke:none;stroke-width:1px;stroke-linecap:butt;stroke-linejoin:round;stroke-opacity:1">
        <path
           d="m 268.57143,533.2136 185.71428,4.86289 67.77745,-2.78196 -180.79434,-3.15605 z"
           style="fill:#afafde;fill-rule:evenodd;stroke:none;stroke-width:1px;stroke-linecap:butt;stroke-linejoin:round;stroke-opacity:1"
           id="path3370" />
        <path
           d="m 268.57143,329.50507 0,203.70853 72.69739,-1.07512 0,-172.56581 z"
           style="fill:#353564;fill-rule:evenodd;stroke:none;stroke-width:1px;stroke-linecap:butt;stroke-linejoin:round;stroke-opacity:1"
           id="path3372" />
        <path
           d="m 341.26882,359.57267 180.79434,-88.26434 0,263.9862 -180.79434,-3.15605 z"
           style="fill:#e9e9ff;fill-rule:evenodd;stroke:none;stroke-width:1px;stroke-linecap:butt;stroke-linejoin:round;stroke-opacity:1"
           id="path3374" />
        <path
           d="m 268.57143,329.50507 185.71428,-135.9994 67.77745,77.80266 -180.79434,88.26434 z"
           style="fill:#4d4d9f;fill-rule:evenodd;stroke:none;stroke-width:1px;stroke-linecap:butt;stroke-linejoin:round;stroke-opacity:1"
           id="path3376" />
        <path
           d="m 454.28571,193.50567 0,344.57082 67.77745,-2.78196 0,-263.9862 z"
           style="fill:#d7d7ff;fill-rule:evenodd;stroke:none;stroke-width:1px;stroke-linecap:butt;stroke-linejoin:round;stroke-opacity:1"
           id="path3378" />
        <path
           d="m 268.57143,329.50507 185.71428,-135.9994 0,344.57082 -185.71428,-4.86289 z"
           style="fill:#8686bf;fill-rule:evenodd;stroke:none;stroke-width:1px;stroke-linecap:butt;stroke-linejoin:round;stroke-opacity:1"
           id="path3380" />
      </g>
      <path
         style="fill:#0000ff;fill-rule:evenodd;stroke:#000000;stroke-width:1px;stroke-linecap:butt;stroke-linejoin:miter;stroke-opacity:1"
         d="m 148.57143,749.50507 365.71429,0 0,114.28571 -365.71429,0 z"
         id="rect3354" />
    </g>
    <path
       style="fill:#ff0000;fill-rule:evenodd;stroke:none;stroke-width:1px;stroke-linecap:butt;stroke-linejoin:miter;stroke-opacity:1"
       d="M 532.8563,543.79018 A 121.42857,97.14286 0 0 0 411.42857,640.93276 121.42857,97.14286 0 0 0 532.8563,738.07729 121.42857,97.14286 0 0 0 654.28599,640.93276 121.42857,97.14286 0 0 0 532.8563,543.79018 Z m -10,74.28711 a 48.57143,42.857143 0 0 1 48.57227,42.85547 48.57143,42.857143 0 0 1 -48.57227,42.85742 48.57143,42.857143 0 0 1 -48.57031,-42.85742 48.57143,42.857143 0 0 1 48.57031,-42.85547 z"
       id="path3383"
       inkscape:connector-curvature="0" />
    <g
       style="font-style:normal;font-weight:normal;font-size:40px;line-height:125%;font-family:sans-serif;letter-spacing:0px;word-spacing:0px;fill:#000000;fill-opacity:1;stroke:none;stroke-width:1px;stroke-linecap:butt;stroke-linejoin:miter;stroke-opacity:1"
       id="text3353">
      <path
         d="m 124.50963,100.18378 -11.35254,0 0,29.32129 -9.375,0 0,-29.32129 -11.35254,0 0,-7.031253 32.08008,0 0,7.031253 z"
         style="font-weight:bold;font-size:50px"
         id="path3358" />
      <path
         d="m 157.20006,129.50507 -8.83789,0 0,-13.59864 q 0,-1.66015 -0.1709,-3.2959 -0.1709,-1.66015 -0.58594,-2.4414 -0.48828,-0.90332 -1.44043,-1.31836 -0.92773,-0.41504 -2.6123,-0.41504 -1.19629,0 -2.44141,0.39062 -1.2207,0.39063 -2.66113,1.24512 l 0,19.4336 -8.78906,0 0,-37.988285 8.78906,0 0,13.598635 q 2.34375,-1.83106 4.49219,-2.80762 2.17285,-0.97656 4.80957,-0.97656 4.44336,0 6.93359,2.58789 2.51465,2.58789 2.51465,7.73926 l 0,17.84668 z"
         style="font-weight:bold;font-size:50px"
         id="path3360" />
      <path
         d="m 174.09459,129.50507 -8.78906,0 0,-27.417 8.78906,0 0,27.417 z m 0.24414,-31.323246 -9.27734,0 0,-6.665039 9.27734,0 0,6.665039 z"
         style="font-weight:bold;font-size:50px"
         id="path3362" />
      <path
         d="m 206.2235,120.81366 q 0,4.24805 -3.8086,6.86035 -3.80859,2.58789 -10.4248,2.58789 -3.66211,0 -6.64063,-0.68359 -2.97851,-0.6836 -4.78515,-1.51367 l 0,-7.22657 0.80566,0 q 0.65918,0.46387 1.51367,1.02539 0.87891,0.53711 2.46582,1.17188 1.36719,0.56152 3.10059,0.97656 1.7334,0.39063 3.71094,0.39063 2.58789,0 3.833,-0.56153 1.24512,-0.58593 1.24512,-1.70898 0,-1.00098 -0.73242,-1.44043 -0.73242,-0.46387 -2.7832,-0.87891 -0.97657,-0.21972 -2.66114,-0.46386 -1.66015,-0.26856 -3.02734,-0.63477 -3.73535,-0.97656 -5.54199,-3.02734 -1.80664,-2.0752 -1.80664,-5.15137 0,-3.95508 3.73535,-6.56738 3.75976,-2.63672 10.2539,-2.63672 3.07618,0 5.88379,0.63476 2.83203,0.61035 4.41895,1.31836 l 0,6.9336 -0.75684,0 q -1.95312,-1.34278 -4.46777,-2.17286 -2.49024,-0.85449 -5.05371,-0.85449 -2.12403,0 -3.58887,0.58594 -1.44043,0.58594 -1.44043,1.66016 0,0.97656 0.65918,1.48925 0.65918,0.5127 3.10059,1.02539 1.34277,0.26856 2.88086,0.53711 1.5625,0.24414 3.125,0.63477 3.46679,0.90332 5.12695,2.85645 1.66016,1.92871 1.66016,4.83398 z"
         style="font-weight:bold;font-size:50px"
         id="path3364" />
      <path
         d="m 237.96178,129.50507 -8.78907,0 0,-27.417 8.78907,0 0,27.417 z m 0.24414,-31.323246 -9.27735,0 0,-6.665039 9.27735,0 0,6.665039 z"
         style="font-weight:bold;font-size:50px"
         id="path3366" />
      <path
         d="m 270.09068,120.81366 q 0,4.24805 -3.80859,6.86035 -3.80859,2.58789 -10.42481,2.58789 -3.6621,0 -6.64062,-0.68359 -2.97852,-0.6836 -4.78516,-1.51367 l 0,-7.22657 0.80567,0 q 0.65918,0.46387 1.51367,1.02539 0.87891,0.53711 2.46582,1.17188 1.36719,0.56152 3.10059,0.97656 1.73339,0.39063 3.71093,0.39063 2.58789,0 3.83301,-0.56153 1.24512,-0.58593 1.24512,-1.70898 0,-1.00098 -0.73242,-1.44043 -0.73243,-0.46387 -2.78321,-0.87891 -0.97656,-0.21972 -2.66113,-0.46386 -1.66016,-0.26856 -3.02734,-0.63477 -3.73536,-0.97656 -5.542,-3.02734 -1.80664,-2.0752 -1.80664,-5.15137 0,-3.95508 3.73536,-6.56738 3.75976,-2.63672 10.2539,-2.63672 3.07617,0 5.88379,0.63476 2.83203,0.61035 4.41895,1.31836 l 0,6.9336 -0.75684,0 q -1.95313,-1.34278 -4.46777,-2.17286 -2.49024,-0.85449 -5.05371,-0.85449 -2.12403,0 -3.58887,0.58594 -1.44043,0.58594 -1.44043,1.66016 0,0.97656 0.65918,1.48925 0.65918,0.5127 3.10058,1.02539 1.34278,0.26856 2.88086,0.53711 1.5625,0.24414 3.125,0.63477 3.4668,0.90332 5.12696,2.85645 1.66015,1.92871 1.66015,4.83398 z"
         style="font-weight:bold;font-size:50px"
         id="path3368" />
      <path
         d="m 310.5692,129.26093 q -1.41602,0.36621 -3.00293,0.56152 -1.58692,0.21973 -3.88184,0.21973 -5.12695,0 -7.6416,-2.0752 -2.49023,-2.0752 -2.49023,-7.10449 l 0,-12.81739 -3.61328,0 0,-5.95703 3.61328,0 0,-7.83691 8.78906,0 0,7.83691 8.22754,0 0,5.95703 -8.22754,0 0,9.7168 q 0,1.44043 0.0244,2.51465 0.0244,1.07422 0.39063,1.92871 0.3418,0.85449 1.19629,1.36719 0.8789,0.48828 2.53906,0.48828 0.68359,0 1.78223,-0.29297 1.12304,-0.29297 1.5625,-0.53711 l 0.73242,0 0,6.03028 z"
         style="font-weight:bold;font-size:50px"
         id="path3371" />
      <path
         d="m 342.79576,117.4201 -20.11719,0 q 0.19532,3.22266 2.44141,4.93165 2.27051,1.70898 6.66504,1.70898 2.7832,0 5.39551,-1.00098 2.6123,-1.00097 4.12597,-2.14843 l 0.97657,0 0,7.05566 q -2.97852,1.19629 -5.61524,1.7334 -2.63672,0.53711 -5.83496,0.53711 -8.25195,0 -12.64648,-3.71094 -4.39454,-3.71094 -4.39454,-10.57129 0,-6.78711 4.1504,-10.74219 4.1748,-3.97949 11.42578,-3.97949 6.68945,0 10.05859,3.39356 3.36914,3.36914 3.36914,9.71679 l 0,3.07617 z m -8.74023,-5.15136 q -0.0732,-2.75879 -1.36719,-4.15039 -1.29395,-1.3916 -4.02832,-1.3916 -2.53906,0 -4.17481,1.31835 -1.63574,1.31836 -1.83105,4.22364 l 11.40137,0 z"
         style="font-weight:bold;font-size:50px"
         id="path3373" />
      <path
         d="m 377.65904,129.50507 -10.2539,0 -5.85938,-8.20313 -6.00586,8.20313 -10.05859,0 10.81543,-13.69629 -10.64453,-13.72071 10.2539,0 5.76172,8.05664 5.78613,-8.05664 10.08301,0 -10.66894,13.50098 10.79101,13.91602 z"
         style="font-weight:bold;font-size:50px"
         id="path3375" />
      <path
         d="m 400.02232,129.26093 q -1.41601,0.36621 -3.00293,0.56152 -1.58691,0.21973 -3.88183,0.21973 -5.12696,0 -7.6416,-2.0752 -2.49024,-2.0752 -2.49024,-7.10449 l 0,-12.81739 -3.61328,0 0,-5.95703 3.61328,0 0,-7.83691 8.78906,0 0,7.83691 8.22754,0 0,5.95703 -8.22754,0 0,9.7168 q 0,1.44043 0.0244,2.51465 0.0244,1.07422 0.39062,1.92871 0.3418,0.85449 1.19629,1.36719 0.87891,0.48828 2.53907,0.48828 0.68359,0 1.78222,-0.29297 1.12305,-0.29297 1.5625,-0.53711 l 0.73242,0 0,6.03028 z"
         style="font-weight:bold;font-size:50px"
         id="path3377" />
    </g>
  </g>
</svg>
